<svg xmlns="http://www.w3.org/2000/svg" viewBox="0 0 1200 650" width="100%" height="100%">
  <defs>
    <linearGradient id="gradExcel" x1="0%" y1="0%" x2="100%" y2="100%">
      <stop offset="0%" stop-color="#10B981" />
      <stop offset="100%" stop-color="#059669" />
    </linearGradient>
    
    <linearGradient id="gradDashboard" x1="0%" y1="0%" x2="100%" y2="100%">
      <stop offset="0%" stop-color="#1E293B" />
      <stop offset="100%" stop-color="#0F172A" />
    </linearGradient>
    
    <linearGradient id="gradPrinter" x1="0%" y1="0%" x2="0%" y2="100%">
      <stop offset="0%" stop-color="#64748B" />
      <stop offset="100%" stop-color="#334155" />
    </linearGradient>

    <filter id="shadowLg" x="-20%" y="-20%" width="140%" height="140%">
      <feDropShadow dx="0" dy="15" stdDeviation="15" flood-color="#000000" flood-opacity="0.12"/>
    </filter>
    
    <filter id="shadowSm" x="-20%" y="-20%" width="140%" height="140%">
      <feDropShadow dx="0" dy="6" stdDeviation="8" flood-color="#000000" flood-opacity="0.08"/>
    </filter>

    <filter id="glowHero" x="-50%" y="-50%" width="200%" height="200%">
      <feGaussianBlur stdDeviation="50" result="coloredBlur"/>
      <feMerge>
        <feMergeNode in="coloredBlur"/>
        <feMergeNode in="SourceGraphic"/>
      </feMerge>
    </filter>
  </defs>

  <rect width="1200" height="650" fill="transparent" />

  <circle cx="480" cy="300" r="160" fill="#10B981" opacity="0.08" filter="url(#glowHero)" />
  <circle cx="600" cy="325" r="200" fill="#F59E0B" opacity="0.12" filter="url(#glowHero)" />
  <circle cx="720" cy="350" r="160" fill="#64748B" opacity="0.08" filter="url(#glowHero)" />

  <circle cx="250" cy="180" r="8" fill="#10B981" opacity="0.6" />
  <circle cx="950" cy="480" r="10" fill="#A7F3D0" opacity="0.8" />
  <path d="M 220 450 L 240 450 M 230 440 L 230 460" stroke="#CBD5E1" stroke-width="4" stroke-linecap="round"/>
  <circle cx="900" cy="150" r="6" fill="#FBBF24" opacity="0.5" />

  <g transform="translate(600, 325) scale(1.35) translate(-610, -250)">
    
    <g transform="translate(420, 120)" filter="url(#shadowLg)">
      <rect x="0" y="0" width="360" height="280" rx="16" fill="url(#gradDashboard)" />
      
      <rect x="12" y="12" width="336" height="256" rx="8" fill="#F8FAFC" />
      
      <rect x="12" y="12" width="336" height="40" rx="8" fill="#ffffff" filter="url(#shadowSm)" />
      <rect x="30" y="24" width="80" height="16" rx="8" fill="#E2E8F0" />
      <rect x="240" y="20" width="90" height="24" rx="12" fill="#F59E0B" />
      <circle cx="255" cy="32" r="4" fill="#ffffff" />
      <rect x="265" y="28" width="45" height="8" rx="4" fill="#ffffff" opacity="0.8" />

      <rect x="30" y="70" width="300" height="48" rx="10" fill="#FEF3C7" stroke="#FBBF24" stroke-width="2" filter="url(#shadowSm)" />
      <circle cx="55" cy="94" r="14" fill="#FBBF24" />
      <rect x="85" y="84" width="90" height="8" rx="4" fill="#D97706" />
      <rect x="85" y="100" width="60" height="6" rx="3" fill="#FDE68A" />
      <rect x="280" y="84" width="36" height="20" rx="10" fill="#10B981" />
      <circle cx="304" cy="94" r="8" fill="#ffffff" />

      <rect x="30" y="130" width="300" height="48" rx="10" fill="#ffffff" filter="url(#shadowSm)" />
      <circle cx="55" cy="154" r="14" fill="#CBD5E1" />
      <rect x="85" y="144" width="110" height="8" rx="4" fill="#64748B" />
      <rect x="85" y="160" width="70" height="6" rx="3" fill="#94A3B8" />
      <rect x="280" y="144" width="36" height="20" rx="10" fill="#E2E8F0" />
      <circle cx="292" cy="154" r="8" fill="#ffffff" />

      <rect x="30" y="190" width="300" height="48" rx="10" fill="#ffffff" filter="url(#shadowSm)" />
      <circle cx="55" cy="214" r="14" fill="#CBD5E1" />
      <rect x="85" y="204" width="80" height="8" rx="4" fill="#64748B" />
      <rect x="85" y="220" width="50" height="6" rx="3" fill="#94A3B8" />
      <rect x="280" y="204" width="36" height="20" rx="10" fill="#10B981" />
      <circle cx="304" cy="214" r="8" fill="#ffffff" />

      <g transform="translate(295, 215)" filter="url(#shadowSm)">
        <path d="M 0 0 L 12 30 L 16 20 L 26 28 L 30 24 L 20 16 L 30 12 Z" fill="#ffffff" stroke="#1E293B" stroke-width="2" stroke-linejoin="round" />
      </g>
    </g>

    <g transform="translate(320, 180)" filter="url(#shadowLg)">
      <rect x="0" y="0" width="140" height="190" rx="16" fill="url(#gradExcel)" />
      <path d="M 100 0 L 140 40 L 140 16 C 140 7, 133 0, 124 0 Z" fill="#ffffff" opacity="0.2" />
      
      <rect x="15" y="55" width="110" height="110" rx="8" fill="#ffffff" opacity="0.95" />
      <rect x="15" y="55" width="110" height="25" rx="8" fill="#D1FAE5" />
      <line x1="15" y1="80" x2="125" y2="80" stroke="#E2E8F0" stroke-width="2" />
      <line x1="15" y1="105" x2="125" y2="105" stroke="#E2E8F0" stroke-width="2" />
      <line x1="15" y1="130" x2="125" y2="130" stroke="#E2E8F0" stroke-width="2" />
      <line x1="60" y1="55" x2="60" y2="165" stroke="#E2E8F0" stroke-width="2" />
      
      <rect x="22" y="65" width="30" height="6" rx="3" fill="#059669" />
      <rect x="68" y="65" width="45" height="6" rx="3" fill="#059669" />
      <rect x="22" y="90" width="25" height="6" rx="3" fill="#94A3B8" />
      <rect x="68" y="90" width="35" height="6" rx="3" fill="#94A3B8" />
      <rect x="22" y="115" width="30" height="6" rx="3" fill="#94A3B8" />
      <rect x="68" y="115" width="40" height="6" rx="3" fill="#94A3B8" />
      
      <circle cx="130" cy="160" r="22" fill="#ffffff" filter="url(#shadowSm)" />
      <path d="M 124 154 L 136 166 M 136 154 L 124 166" stroke="#10B981" stroke-width="4" stroke-linecap="round" stroke-linejoin="round" />
    </g>

    <g transform="translate(680, 240)">
      
      <g transform="translate(40, -140)" filter="url(#shadowLg)">
        <rect x="0" y="0" width="140" height="230" rx="8" fill="#FFFFF0" stroke="#CBD5E1" stroke-width="2" />
        
        <g transform="translate(15, 15)">
          <rect x="0" y="0" width="52" height="25" rx="3" fill="#ffffff" stroke="#E2E8F0" stroke-width="1"/>
          <rect x="58" y="0" width="52" height="25" rx="3" fill="#ffffff" stroke="#E2E8F0" stroke-width="1"/>
          
          <rect x="0" y="35" width="52" height="25" rx="3" fill="#ffffff" stroke="#E2E8F0" stroke-width="1"/>
          <rect x="58" y="35" width="52" height="25" rx="3" fill="#ffffff" stroke="#E2E8F0" stroke-width="1"/>
          
          <rect x="0" y="70" width="52" height="25" rx="3" fill="#ECFDF5" stroke="#10B981" stroke-width="1.5" filter="url(#shadowSm)"/>
          <rect x="6" y="76" width="30" height="4" rx="2" fill="#10B981" />
          <rect x="6" y="84" width="20" height="3" rx="1.5" fill="#34D399" />
          <circle cx="43" cy="83" r="4" fill="#D1FAE5" />
          <path d="M 41 83 L 42.5 84.5 L 45 81.5" fill="none" stroke="#10B981" stroke-width="1" />
          
          <rect x="58" y="70" width="52" height="25" rx="3" fill="#ffffff" stroke="#E2E8F0" stroke-width="1"/>
          
          <rect x="0" y="105" width="52" height="25" rx="3" fill="#ffffff" stroke="#E2E8F0" stroke-width="1"/>
          <rect x="58" y="105" width="52" height="25" rx="3" fill="#ffffff" stroke="#E2E8F0" stroke-width="1"/>
          
          <rect x="0" y="140" width="52" height="25" rx="3" fill="#ffffff" stroke="#E2E8F0" stroke-width="1"/>
          <rect x="58" y="140" width="52" height="25" rx="3" fill="#ffffff" stroke="#E2E8F0" stroke-width="1"/>

          <rect x="0" y="175" width="52" height="25" rx="3" fill="#ffffff" stroke="#E2E8F0" stroke-width="1"/>
          <rect x="58" y="175" width="52" height="25" rx="3" fill="#ffffff" stroke="#E2E8F0" stroke-width="1"/>
        </g>
      </g>

      <g filter="url(#shadowLg)">
        <path d="M 0 30 L 220 30 L 220 120 C 220 131, 211 140, 200 140 L 20 140 C 9 140, 0 131, 0 120 Z" fill="url(#gradPrinter)" />
        <path d="M 20 0 L 200 0 C 211 0, 220 9, 220 20 L 220 30 L 0 30 L 0 20 C 0 9, 9 0, 20 0 Z" fill="#475569" />
        <rect x="30" y="15" width="160" height="8" rx="4" fill="#0F172A" />
        
        <path d="M -15 100 L 235 100 L 220 150 L 15 150 Z" fill="#1E293B" />
        <rect x="20" y="105" width="180" height="5" rx="2" fill="#0F172A" />
        
        <rect x="160" y="50" width="40" height="12" rx="6" fill="#1E293B" />
        <circle cx="170" cy="56" r="3" fill="#10B981" />
        <circle cx="185" cy="56" r="3" fill="#64748B" />
        <circle cx="40" cy="65" r="10" fill="#475569" />
        <path d="M 37 65 L 40 68 L 45 62" fill="none" stroke="#ffffff" stroke-width="2" stroke-linecap="round" />
      </g>
    </g>
    
  </g>
</svg>
