<svg xmlns="http://www.w3.org/2000/svg" width="1043.091" height="711.151" viewBox="0 0 1043.091 711.151">
  <path d="M931.091,711.151H112a112,112,0,0,1-112-112V112A112,112,0,0,1,112,0H931.091a112,112,0,0,1,112,112V599.151A112,112,0,0,1,931.091,711.151Z" fill="#f2f2f2"/>
  <path d="M384.5,487.5h274a15,15,0,0,1,15,15v124a15,15,0,0,1-15,15h-274a15,15,0,0,1-15-15v-124A15,15,0,0,1,384.5,487.5Z" fill="#3f3d56"/>
  <path d="M414.5,517.5h214a5,5,0,0,1,5,5v64a5,5,0,0,1-5,5h-214a5,5,0,0,1-5-5v-64A5,5,0,0,1,414.5,517.5Z" fill="#e6e6e6"/>
  <path d="M429.5,157.5h184a10,10,0,0,1,10,10v320h-204v-320A10,10,0,0,1,429.5,157.5Z" fill="#fff"/>
  <rect x="454.5" y="197.5" width="134" height="10" rx="5" fill="#e6e6e6"/>
  <rect x="454.5" y="227.5" width="134" height="10" rx="5" fill="#e6e6e6"/>
  <rect x="454.5" y="257.5" width="84" height="10" rx="5" fill="#e6e6e6"/>
  <circle cx="521.5" cy="387.5" r="50" fill="#059669"/>
  <path d="M501.5,387.5l15,15,30-30" fill="none" stroke="#fff" stroke-linecap="round" stroke-linejoin="round" stroke-width="10"/>
  <path d="M750,400c0-50-40-90-90-90s-90,40-90,90" fill="none" stroke="#3f3d56" stroke-width="5" stroke-dasharray="10 10"/>
</svg>